<svg width="246" height="282" viewBox="0 0 246 282" fill="none" xmlns="http://www.w3.org/2000/svg">
<g clip-path="url(#clip0_1_116)">
<g clip-path="url(#clip1_1_116)">
<path fill-rule="evenodd" clip-rule="evenodd" d="M245.438 72.0034L182.513 171.243L182.826 53.533L245.438 72.0034Z" fill="white"/>
<path fill-rule="evenodd" clip-rule="evenodd" d="M124.284 0L178.756 104.248L77.0123 45.0804L124.284 0Z" fill="white"/>
<path fill-rule="evenodd" clip-rule="evenodd" d="M180.635 103.622V53.533L158.721 60.4202L180.635 103.622Z" fill="white"/>
<path fill-rule="evenodd" clip-rule="evenodd" d="M244.499 212.88L126.789 208.184L228.846 149.329L244.499 212.88Z" fill="white"/>
<path fill-rule="evenodd" clip-rule="evenodd" d="M184.704 172.495L227.593 147.45L210.688 132.111L184.704 172.495Z" fill="white"/>
<path fill-rule="evenodd" clip-rule="evenodd" d="M120.841 281.753L66.9945 177.504L168.425 236.985L120.841 281.753Z" fill="white"/>
<path fill-rule="evenodd" clip-rule="evenodd" d="M126.476 209.749L169.365 234.794L174.374 212.567L126.476 209.749Z" fill="white"/>
<path fill-rule="evenodd" clip-rule="evenodd" d="M0 209.123L63.8639 110.197L62.6117 227.906L0 209.123Z" fill="white"/>
<path fill-rule="evenodd" clip-rule="evenodd" d="M65.1162 178.13L64.8031 227.907L86.7172 221.019L65.1162 178.13Z" fill="white"/>
<path fill-rule="evenodd" clip-rule="evenodd" d="M2.8175 68.2467L120.214 74.1948L17.8443 131.798L2.8175 68.2467Z" fill="white"/>
<path fill-rule="evenodd" clip-rule="evenodd" d="M62.2986 109.257L18.7834 133.676L35.6886 149.329L62.2986 109.257Z" fill="white"/>
<path fill-rule="evenodd" clip-rule="evenodd" d="M119.275 72.3165L76.3862 46.9587L71.3773 69.4989L119.275 72.3165Z" fill="white"/>
</g>
</g>
<defs>
<clipPath id="clip0_1_116">
<rect width="245.438" height="281.753" fill="white"/>
</clipPath>
<clipPath id="clip1_1_116">
<rect width="245.438" height="281.753" fill="white"/>
</clipPath>
</defs>
</svg>
